<svg xmlns="http://www.w3.org/2000/svg" viewBox="0 0 512 512">
  <!-- Background -->
  <rect width="512" height="512" rx="80" fill="#0f172a"/>

  <!-- Mosque dome -->
  <ellipse cx="256" cy="180" rx="90" ry="60" fill="#1e3a5f"/>
  <ellipse cx="256" cy="180" rx="90" ry="60" fill="none" stroke="#e6b422" stroke-width="4"/>

  <!-- Main dome top -->
  <path d="M 166 180 Q 166 100 256 95 Q 346 100 346 180 Z" fill="#1e3a5f" stroke="#e6b422" stroke-width="4"/>

  <!-- Crescent on dome -->
  <path d="M 256 102 Q 270 95 278 105 Q 265 100 258 112 Q 248 100 256 102 Z" fill="#e6b422"/>
  <line x1="267" y1="97" x2="267" y2="82" stroke="#e6b422" stroke-width="3"/>
  <circle cx="267" cy="78" r="4" fill="#e6b422"/>

  <!-- Building body -->
  <rect x="176" y="180" width="160" height="200" fill="#1e3a5f" stroke="#e6b422" stroke-width="2"/>

  <!-- Windows grid (floors) -->
  <rect x="196" y="195" width="25" height="18" rx="3" fill="#e6b422" opacity="0.9"/>
  <rect x="231" y="195" width="25" height="18" rx="3" fill="#e6b422" opacity="0.7"/>
  <rect x="266" y="195" width="25" height="18" rx="3" fill="#e6b422" opacity="0.5"/>
  <rect x="301" y="195" width="25" height="18" rx="3" fill="#e6b422" opacity="0.3"/>

  <rect x="196" y="223" width="25" height="18" rx="3" fill="#e6b422" opacity="0.9"/>
  <rect x="231" y="223" width="25" height="18" rx="3" fill="#e6b422" opacity="0.9"/>
  <rect x="266" y="223" width="25" height="18" rx="3" fill="#e6b422" opacity="0.5"/>
  <rect x="301" y="223" width="25" height="18" rx="3" fill="#374151" opacity="0.6"/>

  <rect x="196" y="251" width="25" height="18" rx="3" fill="#e6b422" opacity="0.9"/>
  <rect x="231" y="251" width="25" height="18" rx="3" fill="#374151" opacity="0.6"/>
  <rect x="266" y="251" width="25" height="18" rx="3" fill="#374151" opacity="0.6"/>
  <rect x="301" y="251" width="25" height="18" rx="3" fill="#374151" opacity="0.6"/>

  <!-- Door arch -->
  <path d="M 236 380 L 236 340 Q 236 320 256 320 Q 276 320 276 340 L 276 380 Z" fill="#0f172a" stroke="#e6b422" stroke-width="2"/>

  <!-- Foundation -->
  <rect x="156" y="380" width="200" height="20" rx="4" fill="#e6b422" opacity="0.8"/>

  <!-- Arabic text: قرآن -->
  <text x="256" y="445" text-anchor="middle" font-family="serif" font-size="48" fill="#e6b422" font-weight="bold">قرآن</text>
</svg>
